<svg width="1280" height="720" viewBox="0 0 1280 720" fill="none" xmlns="http://www.w3.org/2000/svg">
  <defs>
    <linearGradient id="bg" x1="0" y1="0" x2="1280" y2="720" gradientUnits="userSpaceOnUse">
      <stop stop-color="#12342F"/>
      <stop offset="0.52" stop-color="#1D6B5C"/>
      <stop offset="1" stop-color="#E8B86D"/>
    </linearGradient>
    <linearGradient id="mat" x1="210" y1="532" x2="1048" y2="616" gradientUnits="userSpaceOnUse">
      <stop stop-color="#F7E7C6"/>
      <stop offset="1" stop-color="#D89C48"/>
    </linearGradient>
    <filter id="shadow" x="94" y="56" width="1092" height="596" filterUnits="userSpaceOnUse" color-interpolation-filters="sRGB">
      <feFlood flood-opacity="0" result="BackgroundImageFix"/>
      <feColorMatrix in="SourceAlpha" type="matrix" values="0 0 0 0 0 0 0 0 0 0 0 0 0 0 0 0 0 0 127 0" result="hardAlpha"/>
      <feOffset dy="18"/>
      <feGaussianBlur stdDeviation="28"/>
      <feComposite in2="hardAlpha" operator="out"/>
      <feColorMatrix type="matrix" values="0 0 0 0 0.02 0 0 0 0 0.08 0 0 0 0 0.07 0 0 0 0.35 0"/>
      <feBlend mode="normal" in2="BackgroundImageFix" result="effect1_dropShadow_1_1"/>
      <feBlend mode="normal" in="SourceGraphic" in2="effect1_dropShadow_1_1" result="shape"/>
    </filter>
  </defs>
  <rect width="1280" height="720" fill="url(#bg)"/>
  <path d="M0 568C172 503 312 496 471 541C635 587 749 641 914 610C1077 580 1170 491 1280 449V720H0V568Z" fill="#0C221F" fill-opacity="0.44"/>
  <path d="M-14 142C98 88 217 76 337 102C480 133 574 206 727 190C875 175 972 87 1099 70C1181 59 1235 78 1280 105V0H0V142H-14Z" fill="#F8D999" fill-opacity="0.14"/>
  <g filter="url(#shadow)">
    <rect x="142" y="94" width="996" height="478" rx="24" fill="#FFF6E5" fill-opacity="0.1" stroke="#FFE0A6" stroke-opacity="0.28" stroke-width="2"/>
  </g>
  <ellipse cx="627" cy="580" rx="426" ry="38" fill="#071A17" fill-opacity="0.34"/>
  <path d="M245 557C414 523 828 520 1040 554C1057 557 1058 579 1042 584C805 652 470 650 241 584C224 579 228 560 245 557Z" fill="url(#mat)"/>
  <path d="M423 552C515 535 790 534 910 551" stroke="#744F27" stroke-opacity="0.33" stroke-width="8" stroke-linecap="round"/>
  <circle cx="611" cy="251" r="42" fill="#F7E7C6"/>
  <path d="M610 296C592 338 583 382 589 430C591 445 609 450 618 438C646 400 661 361 660 318C660 288 622 269 610 296Z" fill="#F7E7C6"/>
  <path d="M615 327C565 356 506 371 444 374" stroke="#F7E7C6" stroke-width="25" stroke-linecap="round"/>
  <path d="M651 331C704 348 744 382 773 433" stroke="#F7E7C6" stroke-width="25" stroke-linecap="round"/>
  <path d="M589 425C546 463 500 492 451 512" stroke="#F7E7C6" stroke-width="27" stroke-linecap="round"/>
  <path d="M624 432C680 460 742 481 811 493" stroke="#F7E7C6" stroke-width="27" stroke-linecap="round"/>
  <path d="M441 374C408 375 380 364 357 342" stroke="#F7E7C6" stroke-width="18" stroke-linecap="round"/>
  <path d="M774 433C802 459 834 471 870 469" stroke="#F7E7C6" stroke-width="18" stroke-linecap="round"/>
  <rect x="140" y="612" width="1000" height="12" rx="6" fill="#F7E7C6" fill-opacity="0.46"/>
  <text x="88" y="118" fill="#FFF6E5" font-family="Georgia, 'Times New Roman', serif" font-size="44" font-weight="700">Professional Pilates Trainer</text>
  <text x="90" y="168" fill="#FFE0A6" font-family="Arial, sans-serif" font-size="24" font-weight="700" letter-spacing="2">CERTIFICATION</text>
  <text x="90" y="616" fill="#FFF6E5" font-family="Arial, sans-serif" font-size="22" font-weight="700">Mat • Reformer • Cadillac • Chair • Barrel</text>
  <text x="870" y="118" fill="#FFF6E5" font-family="Arial, sans-serif" font-size="22" font-weight="700">7-day professional path</text>
</svg>
